<?xml version="1.0" encoding="iso-8859-1"?>
<!-- Generator: Adobe Illustrator 16.0.0, SVG Export Plug-In . SVG Version: 6.00 Build 0)  -->
<!DOCTYPE svg PUBLIC "-//W3C//DTD SVG 1.1//EN" "http://www.w3.org/Graphics/SVG/1.1/DTD/svg11.dtd">
<svg version="1.1" id="Layer_1" xmlns="http://www.w3.org/2000/svg" xmlns:xlink="http://www.w3.org/1999/xlink" x="0px" y="0px"
	 width="100px" height="89.996px" viewBox="0 0 100 89.996" style="enable-background:new 0 0 100 89.996;" xml:space="preserve">
<g>
	<g>
		<path style="fill-rule:evenodd;clip-rule:evenodd;fill:#2A9EFD;" d="M99.996,90.001c0.281,0-15.415-6.514-15.415-23.143
			c0-17.915,0-19.286,0-19.286l-0.032-0.01c0.012-0.426,0.032-0.849,0.032-1.276v-2.572C84.581,19.571,65.027,0,40.906,0h-499.235
			c-24.121,0-43.675,19.571-43.675,43.714v2.572c0,24.144,19.554,43.715,43.675,43.715H40.906c10.044,0,19.29-3.402,26.668-9.106
			C75.5,86.334,86.02,90.001,99.996,90.001z"/>
	</g>
</g>
</svg>
