<?xml version="1.0" encoding="iso-8859-1"?>
<!-- Generator: Adobe Illustrator 16.0.0, SVG Export Plug-In . SVG Version: 6.00 Build 0)  -->
<!DOCTYPE svg PUBLIC "-//W3C//DTD SVG 1.1//EN" "http://www.w3.org/Graphics/SVG/1.1/DTD/svg11.dtd">
<svg version="1.1" id="Layer_1" xmlns="http://www.w3.org/2000/svg" xmlns:xlink="http://www.w3.org/1999/xlink" x="0px" y="0px"
	 width="100px" height="89.996px" viewBox="0 0 100 89.996" style="enable-background:new 0 0 100 89.996;" xml:space="preserve">
<g>
	<g>
		<path style="fill-rule:evenodd;clip-rule:evenodd;fill:#2A9EFD;" d="M602,90.001c0.281,0-15.415-6.514-15.415-23.143
			c0-17.915,0-19.286,0-19.286l-0.032-0.01c0.012-0.426,0.032-0.849,0.032-1.276v-2.572C586.585,19.571,567.031,0,542.91,0H43.675
			C19.554,0,0,19.571,0,43.714v2.572C0,70.43,19.554,90.001,43.675,90.001H542.91c10.044,0,19.29-3.402,26.668-9.106
			C577.504,86.334,588.023,90.001,602,90.001z"/>
	</g>
</g>
</svg>
