<?xml version="1.0" encoding="utf-8"?>
<!-- Generator: Adobe Illustrator 16.0.0, SVG Export Plug-In . SVG Version: 6.00 Build 0)  -->
<!DOCTYPE svg PUBLIC "-//W3C//DTD SVG 1.1//EN" "http://www.w3.org/Graphics/SVG/1.1/DTD/svg11.dtd">
<svg version="1.1" id="Layer_1" xmlns="http://www.w3.org/2000/svg" xmlns:xlink="http://www.w3.org/1999/xlink" x="0px" y="0px"
	 width="50px" height="50px" viewBox="0 0 50 50" enable-background="new 0 0 50 50" xml:space="preserve">
<g>
	<path fill="#FFFFFF" d="M25,0C11.193,0,0,11.192,0,25c0,13.807,11.193,25,25,25c13.807,0,25-11.193,25-25C50,11.192,38.807,0,25,0z
		 M25,48C12.317,48,2,37.682,2,25C2,12.318,12.317,2,25,2c12.684,0,23,10.319,23,23C48,37.682,37.684,48,25,48z M37.506,16.074
		L21.452,31.641l-5.624-5.623c-0.586-0.584-1.535-0.584-2.121,0c-0.586,0.586-0.586,1.535,0,2.121l6.668,6.668
		c0.293,0.293,0.677,0.439,1.061,0.439c0.376,0,0.753-0.139,1.044-0.422l17.114-16.596c0.596-0.577,0.609-1.526,0.033-2.121
		C39.048,15.511,38.1,15.498,37.506,16.074z"/>
</g>
</svg>
