<?xml version="1.0" encoding="utf-8"?>
<!-- Generator: Adobe Illustrator 16.0.0, SVG Export Plug-In . SVG Version: 6.00 Build 0)  -->
<!DOCTYPE svg PUBLIC "-//W3C//DTD SVG 1.1//EN" "http://www.w3.org/Graphics/SVG/1.1/DTD/svg11.dtd">
<svg version="1.1" id="Layer_1" xmlns="http://www.w3.org/2000/svg" xmlns:xlink="http://www.w3.org/1999/xlink" x="0px" y="0px"
	 width="50px" height="50px" viewBox="0 0 50 50" enable-background="new 0 0 50 50" xml:space="preserve">
<g>
	<path fill="#FFFFFF" d="M25.125,15.914c1.656,0,3-1.344,3-3c0-1.658-1.344-2.998-3-2.998s-3,1.34-3,2.998
		C22.125,14.57,23.469,15.914,25.125,15.914z M27.162,17.914h-6v2h2v17h-2v2h8v-2h-2V17.914z M25,0C11.193,0,0,11.193,0,25
		c0,13.809,11.193,25,25,25c13.807,0,25-11.191,25-25C50,11.193,38.807,0,25,0z M25,48C12.317,48,2,37.682,2,25
		C2,12.318,12.317,2,25,2c12.684,0,23,10.318,23,23C48,37.682,37.684,48,25,48z"/>
</g>
</svg>
